<svg xmlns="http://www.w3.org/2000/svg" width="16.985" height="15" viewBox="0 0 16.985 15">
  <path id="icons8-bank_cards" d="M3.477,5A1.478,1.478,0,0,0,2,6.477V7.585H17.508V6.477A1.478,1.478,0,0,0,16.031,5ZM2,9.431V14.6a1.478,1.478,0,0,0,1.477,1.477H16.031A1.478,1.478,0,0,0,17.508,14.6V9.431Zm2.585,1.108h5.908v.738H4.585Zm13.662,1.5V14.6a2.218,2.218,0,0,1-2.215,2.215H3.477c-.045,0-.094-.009-.138-.012L3.7,18.777A1.458,1.458,0,0,0,5.138,20a1.5,1.5,0,0,0,.265-.023l12.358-2.2a1.483,1.483,0,0,0,.958-.612,1.451,1.451,0,0,0,.242-1.1Z" transform="translate(-2 -5)" fill="#fff"/>
</svg>
