<svg xmlns="http://www.w3.org/2000/svg" width="13.213" height="16" viewBox="0 0 13.213 16">
  <path id="icons8-cafe" d="M12.949,1.984a.349.349,0,0,0-.342.353,2.058,2.058,0,0,1-.925,1.844A2.876,2.876,0,0,0,10.526,6.51a.348.348,0,1,0,.7,0A2.022,2.022,0,0,1,12.146,4.7,2.913,2.913,0,0,0,13.3,2.337a.348.348,0,0,0-.353-.353ZM14.69,3.723a.349.349,0,0,0-.342.353,1.238,1.238,0,0,1-.58,1.149,2.055,2.055,0,0,0-.814,1.633.348.348,0,1,0,.7,0,1.2,1.2,0,0,1,.58-1.114,2.092,2.092,0,0,0,.814-1.668.348.348,0,0,0-.353-.353ZM7.739,7.9a.348.348,0,0,0-.348.348v4.172a3.467,3.467,0,0,0,1.4,2.782h6.935a3.475,3.475,0,0,0,1.327-2.1,2.114,2.114,0,0,0,1.707-.944,4.037,4.037,0,0,0,.447-2.112.017.017,0,0,0,0-.008.331.331,0,0,0,0-.052A1.049,1.049,0,0,0,18.17,8.944H17.127v-.7a.348.348,0,0,0-.348-.348Zm9.388,1.739H18.17a.342.342,0,0,1,.348.348,3.6,3.6,0,0,1-.348,1.805,1.268,1.268,0,0,1-1.043.607ZM6.348,15.9A.348.348,0,0,0,6,16.246c0,.963,1.331,1.739,2.434,1.739h7.65c1.126,0,2.434-.759,2.434-1.739a.348.348,0,0,0-.348-.348Z" transform="translate(-6 -1.984)" fill="#fff"/>
</svg>
