<svg xmlns="http://www.w3.org/2000/svg" width="20" height="16" viewBox="0 0 20 16">
  <path id="icons8-sneakers" d="M5.943,6.8A2.581,2.581,0,0,1,5.6,5.4a.393.393,0,0,0-.168-.324.4.4,0,0,0-.36-.056,6.1,6.1,0,0,0-2.02,1.344A4.49,4.49,0,0,0,7.819,8.048,2.983,2.983,0,0,1,5.943,6.8Zm13.676,10.12a.4.4,0,0,0-.168-.112l-2.836-.952-.672-.672-.136-.356-.716.36-.212.108a.419.419,0,0,1-.18.04.392.392,0,0,1-.356-.22.4.4,0,0,1,.176-.536l.288-.144.72-.36-.208-.564-.74.312-.264.112a.352.352,0,0,1-.156.032.393.393,0,0,1-.368-.244A.4.4,0,0,1,14,13.2l.3-.124.736-.312-.232-.616-.752.272-.368.132a.406.406,0,0,1-.136.024.4.4,0,0,1-.136-.776l.36-.132.752-.272-.232-.62-.752.272-.332.12a.424.424,0,0,1-.136.024.4.4,0,0,1-.136-.776l.324-.116.752-.272-.244-.652v0l0-.012a.225.225,0,0,0,0-.052,6.482,6.482,0,0,1,.2-2.516.753.753,0,0,0-.152-.692.813.813,0,0,0-.7-.288,17.444,17.444,0,0,0-3.244.816.438.438,0,0,0-.148.092L9.179,8.328a.391.391,0,0,1-.288.263c-.077.016-.17.044-.288.077A6.825,6.825,0,0,1,6.631,9,5.368,5.368,0,0,1,2.483,6.94,6.793,6.793,0,0,0,1.655,8,14.7,14.7,0,0,0,0,12.536a.412.412,0,0,0,.076.3h0a9.528,9.528,0,0,0,3.141,2.667l9.07,4.789a4.737,4.737,0,0,0,2.51.7l.054,0,2.776-.4C18.723,20.508,20,19.932,20,18.56,19.863,17.184,19.687,16.988,19.619,16.916Zm-.456,1.94c-.2.788-1.352.928-1.62.948l-2.772.4a3.974,3.974,0,0,1-2.076-.592L3.4,14.7a7.772,7.772,0,0,1-2.58-2.2h0a15.8,15.8,0,0,1,.884-2.846l0,0A5.8,5.8,0,0,1,4.623,12.3a6.036,6.036,0,0,0,2.22,2.628l1.424.744a3.821,3.821,0,0,0,1.112.364,1.714,1.714,0,0,0,.2.012c.08,0,.156,0,.232-.008l.056,0c.08,0,.156-.008.236-.008a2.074,2.074,0,0,1,1.392.58,3.063,3.063,0,0,1,.508.6,5.745,5.745,0,0,0,2.3,1.972.213.213,0,0,0,.1.024.187.187,0,0,0,.068-.012A6.572,6.572,0,0,1,16.1,18.8H17.9a3.863,3.863,0,0,0,1.192-.132.812.812,0,0,0,.1-.044A1.043,1.043,0,0,1,19.163,18.856Z" transform="translate(0.001 -5)" fill="#fff"/>
</svg>
