<svg xmlns="http://www.w3.org/2000/svg" width="18.263" height="14.61" viewBox="0 0 18.263 14.61">
  <path id="icons8-bed" d="M1.826,10a1.1,1.1,0,0,0-1.1,1.1v5.045a5.472,5.472,0,0,1,1.826-1V13.653c0-.972,1.659-1.1,3.1-1.1s3.1.124,3.1,1.1v.73c.123,0,.24,0,.365,0s.243,0,.365,0v-.73c0-.972,1.659-1.1,3.1-1.1s3.1.124,3.1,1.1v1.472a5.418,5.418,0,0,1,1.826,1.016V11.1a1.1,1.1,0,0,0-1.1-1.1Zm7.3,5.113C2.157,15.113-.006,16.4,0,19.862H18.262C18.268,16.38,16.105,15.113,9.131,15.113ZM0,20.592V24.61H2.557V23.149c0-.525.205-.731.73-.731H14.975c.525,0,.731.205.731.731V24.61h2.557V20.592Z" transform="translate(0 -10)" fill="#fff"/>
</svg>
