<svg xmlns="http://www.w3.org/2000/svg" width="13.395" height="19.615" viewBox="0 0 13.395 19.615">
  <path id="icons8-toddler" d="M17.7,4a2.392,2.392,0,1,0,2.392,2.392A2.392,2.392,0,0,0,17.7,4Zm-.779,5.741a2.078,2.078,0,0,0-1.562.714l-4.025,3.717a1.031,1.031,0,0,0,1.4,1.514l2.1-1.936v2.928l-.391,5.661a1.193,1.193,0,1,0,2.381.164l.286-4.151h1.189l.286,4.151a1.193,1.193,0,1,0,2.381-.164l-.391-5.666V13.75l2.1,1.936a1.031,1.031,0,0,0,1.4-1.514L20.04,10.455a2.078,2.078,0,0,0-1.562-.714Z" transform="translate(-11.001 -4)" fill="#fff"/>
</svg>
