<svg xmlns="http://www.w3.org/2000/svg" width="20.725" height="18.998" viewBox="0 0 20.725 18.998">
  <path id="icons8-lake" d="M13.09,2a.431.431,0,0,0-.395.256L10.968,6.142a.431.431,0,0,0,.395.607h1.3v.864h.864V6.75h1.3a.431.431,0,0,0,.395-.607L13.484,2.256A.431.431,0,0,0,13.09,2ZM18.7,3.3a2.589,2.589,0,0,0-.432,5.142v2.2h.864V8.44A2.59,2.59,0,0,0,18.7,3.3ZM8.772,7.613c-1.3,0-1.693.674-2.159.864A5.591,5.591,0,0,1,4.791,8.8C2.7,8.8,1,10.087,1,11.663A2.66,2.66,0,0,0,2.429,13.9a1.159,1.159,0,0,1,.565,1v.013a2.184,2.184,0,0,1-.518,1.412A1.043,1.043,0,0,0,2.2,17c0,1.157,2.323,2.094,5.19,2.094H7.4a2.142,2.142,0,0,1,1.675.79A3.183,3.183,0,0,0,11.574,21a3.319,3.319,0,0,0,2.081-.7,5.238,5.238,0,0,1,3.29-1.205h.216c2.314,0,3.7-.255,3.7-1.55s.864-1.878.864-3.022a2.31,2.31,0,0,0-2.591-2.159h-.864c-1.727,0-1.913-1.481-2.591-2.159-.864-.864-2.159-.864-3.454-.864-.6,0-.9-.613-1.326-.988A2.514,2.514,0,0,0,8.772,7.613ZM3.591,11.067h1.3a.432.432,0,1,1,0,.864h-1.3a.432.432,0,1,1,0-.864Zm3.454,0h5.613a.432.432,0,1,1,0,.864H7.045a.432.432,0,1,1,0-.864ZM5.318,14.09h8.635a.432.432,0,1,1,0,.864H5.318a.432.432,0,1,1,0-.864Zm10.794,0h1.727a.432.432,0,1,1,0,.864H16.112a.432.432,0,0,1,0-.864ZM9.2,16.68h9.931a.432.432,0,1,1,0,.864H9.2a.432.432,0,1,1,0-.864Z" transform="translate(-1 -2)" fill="#fff"/>
</svg>
