<svg xmlns="http://www.w3.org/2000/svg" width="17.098" height="17" viewBox="0 0 17.098 17">
  <path id="icons8-rice_bowl" d="M15.37,2.267a.581.581,0,0,0-.395.314l-2.6,5.157a1.8,1.8,0,0,0-1.452-.743A1.84,1.84,0,0,0,9.248,8.11a2.324,2.324,0,0,0-.639.116,1.435,1.435,0,0,0-1.034-.488,1.388,1.388,0,0,0-.511.128,1.809,1.809,0,0,0-.6-.128A1.834,1.834,0,0,0,4.672,9.294a1.833,1.833,0,0,0-1.556,1.789H2.372A.371.371,0,0,0,2,11.454V12.8c0,3.682,3.955,6.458,6.516,6.458h4.065c2.561,0,6.516-2.776,6.516-6.458V11.454a.371.371,0,0,0-.372-.372H18.3a1.539,1.539,0,0,0-.709-.859,1.467,1.467,0,0,0-1.266-1.336,1.93,1.93,0,0,0-.453-.65l2.555-3.6a.548.548,0,0,0-.209-.813.532.532,0,0,0-.825.139l-2.4,3.81a1.719,1.719,0,0,0-.348-.035,1.8,1.8,0,0,0-1.243.534c-.076-.029-.155-.054-.232-.081l2.9-5.041a.546.546,0,0,0-.279-.79A.6.6,0,0,0,15.37,2.267Zm-4.449,5.47a1.113,1.113,0,0,1,1.092.883l.081.395.383-.116a1.061,1.061,0,0,1,.836.093l.267.151.2-.244a1.1,1.1,0,0,1,.86-.418,1.109,1.109,0,0,1,1.08.836l.07.3.3-.023c.071,0,.081,0,.035,0a.737.737,0,0,1,.743.743c0-.035-.007-.017-.012.046l-.012.279.267.093a.748.748,0,0,1,.395.325H11.293a.372.372,0,0,0-.743,0H3.859A1.11,1.11,0,0,1,4.974,9.968h.372V9.6A1.121,1.121,0,0,1,6.913,8.574l.163.081.163-.081a.726.726,0,0,1,.337-.093.739.739,0,0,1,.627.337l.163.256.279-.1a1.681,1.681,0,0,1,.6-.116,1.638,1.638,0,0,1,.186.012l.325.035.081-.314A1.112,1.112,0,0,1,10.921,7.738ZM6.832,9.224A.372.372,0,1,0,7.2,9.6.372.372,0,0,0,6.832,9.224Zm1.115.743a.372.372,0,1,0,.372.372A.372.372,0,0,0,7.947,9.968Zm5.576,0a.372.372,0,1,0,.372.372A.372.372,0,0,0,13.523,9.968Z" transform="translate(-2 -2.259)" fill="#fff"/>
</svg>
