<svg xmlns="http://www.w3.org/2000/svg" width="15.352" height="17" viewBox="0 0 15.352 17">
  <path id="icons8-shopping_bag" d="M10.551,1A3.473,3.473,0,0,0,7.082,4.469v.694H4.339L2.875,18H18.227L16.763,5.163H14.714V7.245a1.041,1.041,0,1,1-1.388-.976v.976a.347.347,0,0,0,.694,0V4.469A3.473,3.473,0,0,0,10.551,1Zm0,.694a2.779,2.779,0,0,1,2.776,2.776v.694H8.469V7.245a1.041,1.041,0,1,1-1.388-.976v.976a.347.347,0,0,0,.694,0V4.469A2.779,2.779,0,0,1,10.551,1.694Z" transform="translate(-2.875 -1)" fill="#fff"/>
</svg>
