<svg xmlns="http://www.w3.org/2000/svg" width="17.28" height="18" viewBox="0 0 17.28 18">
  <path id="icons8-gas_station" d="M4.632,0A1.9,1.9,0,0,0,2.72,1.913V15.12H13.88V1.913A1.9,1.9,0,0,0,11.968,0Zm.574,1.8h6.187a.712.712,0,0,1,.686.686V6.154a.712.712,0,0,1-.686.686H5.206a.712.712,0,0,1-.686-.686V2.486A.712.712,0,0,1,5.206,1.8Zm9.652.1-.517.517L16.4,4.466V7.414a1.628,1.628,0,0,0,.461,1.125l1.7,1.688V12.96a1.44,1.44,0,0,1-2.88,0v-1.8a2.129,2.129,0,0,0-1.44-2.036v.787a1.424,1.424,0,0,1,.72,1.249v1.8a2.16,2.16,0,1,0,4.32,0V6.986a1.628,1.628,0,0,0-.461-1.125ZM2.36,15.84A.36.36,0,0,0,2,16.2v1.44a.36.36,0,0,0,.36.36H14.24a.359.359,0,0,0,.36-.36V16.2a.359.359,0,0,0-.36-.36Z" transform="translate(-2)" fill="#fff"/>
</svg>
