<svg xmlns="http://www.w3.org/2000/svg" width="885" height="1371.5" viewBox="0 0 885 1371.5">
  <g id="Ausstattung" transform="translate(-460 -8969)">
    <line id="Line_5" data-name="Line 5" y2="1292.5" transform="translate(960.5 9048)" fill="none" stroke="#000" stroke-width="3"/>
    <g id="Group_209" data-name="Group 209" transform="translate(0 209)">
      <text id="Komfortlüftung" transform="translate(905 9257)" font-size="18" font-family="Helvetica"><tspan x="-117.062" y="0">Komfortlüftung</tspan></text>
      <g id="Group_204" data-name="Group 204" transform="translate(0 -1)">
        <circle id="Ellipse_17" data-name="Ellipse 17" cx="15" cy="15" r="15" transform="translate(945 9216)"/>
        <g id="Group_202" data-name="Group 202">
          <text id="Mechanische_Be-_und_Entlüftung" data-name="Mechanische Be- und Entlüftung" transform="translate(520 9206)" font-size="24" font-family="Helvetica"><tspan x="-346.887" y="18">Mechanische Be- und Entlüftung</tspan></text>
          <path id="icons8-air_shaft" d="M4,4v7.143H27.809V4ZM30.19,4v7.143H54V4ZM4,13.524v8.333H27.809V13.524Zm26.19,0v8.333H54V13.524ZM4,24.238v7.143H27.809V24.238Zm26.19,0v7.143H54V24.238ZM13.524,34.459l-5.6,5.6A1.19,1.19,0,1,0,9.6,41.747l2.73-2.73v5.459A7.125,7.125,0,0,1,5.19,51.619,1.191,1.191,0,1,0,5.19,54a9.542,9.542,0,0,0,9.524-9.524V39.017l2.73,2.73a1.19,1.19,0,1,0,1.684-1.684Zm15.476,0-5.6,5.6a1.19,1.19,0,1,0,1.684,1.684l2.73-2.73V52.809a1.191,1.191,0,1,0,2.381,0V39.017l2.73,2.73A1.19,1.19,0,1,0,34.6,40.063Zm15.476,0-5.6,5.6a1.19,1.19,0,1,0,1.684,1.684l2.73-2.73v5.459A9.542,9.542,0,0,0,52.809,54a1.191,1.191,0,1,0,0-2.381,7.125,7.125,0,0,1-7.143-7.143V39.017l2.73,2.73a1.19,1.19,0,1,0,1.684-1.684Z" transform="translate(997 9208)" fill="#63a5bf"/>
        </g>
      </g>
    </g>
    <g id="Group_210" data-name="Group 210" transform="translate(0 524.25)">
      <text id="_Elektrisch_betrieben" data-name=" Elektrisch betrieben" transform="translate(905 9257)" font-size="18" font-family="Helvetica"><tspan x="-163.081" y="0" xml:space="preserve"> Elektrisch betrieben</tspan></text>
      <g id="Group_204-2" data-name="Group 204" transform="translate(0 -1)">
        <circle id="Ellipse_17-2" data-name="Ellipse 17" cx="15" cy="15" r="15" transform="translate(945 9216)"/>
        <g id="Group_202-2" data-name="Group 202">
          <text id="außenliegender_Sonnenschutz" data-name="außenliegender Sonnenschutz" transform="translate(520 9206)" font-size="24" font-family="Helvetica"><tspan x="-325.57" y="18">außenliegender Sonnenschutz</tspan></text>
          <path id="icons8-sun" d="M28.888,3.97a1.39,1.39,0,0,0-.149.037A1.191,1.191,0,0,0,27.81,5.2V12.33a1.189,1.189,0,1,0,2.378,0V5.2a1.19,1.19,0,0,0-1.3-1.226ZM11.943,10.955a1.181,1.181,0,0,0-.929.836A1.194,1.194,0,0,0,11.349,13L16.4,18.053a1.189,1.189,0,1,0,1.672-1.672l-5.054-5.054a1.194,1.194,0,0,0-.966-.372Zm33.74,0a1.2,1.2,0,0,0-.706.372l-5.054,5.054A1.189,1.189,0,1,0,41.6,18.053L46.649,13a1.189,1.189,0,0,0-.966-2.044ZM29,17.087A11.891,11.891,0,1,0,40.89,28.977,11.9,11.9,0,0,0,29,17.087ZM4.883,27.788a1.2,1.2,0,0,0,.334,2.378h7.134a1.189,1.189,0,1,0,0-2.378H4.883Zm40.429,0a1.2,1.2,0,0,0,.334,2.378h7.134a1.189,1.189,0,1,0,0-2.378H45.312ZM17.108,39.53a1.2,1.2,0,0,0-.706.372l-5.054,5.054a1.189,1.189,0,1,0,1.672,1.672l5.054-5.054a1.19,1.19,0,0,0-.855-2.044Zm23.41,0a1.181,1.181,0,0,0-.929.836,1.194,1.194,0,0,0,.334,1.208l5.054,5.054a1.189,1.189,0,1,0,1.672-1.672L41.6,39.9a1.189,1.189,0,0,0-.855-.372h-.223ZM28.888,44.4a1.389,1.389,0,0,0-.149.037,1.191,1.191,0,0,0-.929,1.189v7.134a1.189,1.189,0,1,0,2.378,0V45.624a1.19,1.19,0,0,0-1.3-1.226Z" transform="translate(996.55 9206.786)" fill="#63a5bf"/>
        </g>
      </g>
    </g>
    <g id="Group_212" data-name="Group 212" transform="translate(0 840)">
      <text id="Achsmaß" transform="translate(905 9257)" font-size="18" font-family="Helvetica"><tspan x="-76.017" y="0">Achsmaß</tspan></text>
      <g id="Group_204-3" data-name="Group 204" transform="translate(0 -1)">
        <circle id="Ellipse_17-3" data-name="Ellipse 17" cx="15" cy="15" r="15" transform="translate(945 9216)"/>
        <g id="Group_202-3" data-name="Group 202">
          <text id="_1_35_m" data-name="1,35 m" transform="translate(520 9206)" font-size="24" font-family="Helvetica"><tspan x="-73.371" y="18">1,35 m</tspan></text>
          <path id="icons8-depth" d="M25.385,7a2.78,2.78,0,1,0,.26,5.555H42.309a2.778,2.778,0,1,0,0-5.555H25.645A2.085,2.085,0,0,0,25.385,7Zm8.462,6.9a1.624,1.624,0,0,0-.174.043,1.39,1.39,0,0,0-.694.391l-3.949,2.6a1.408,1.408,0,0,0,1.562,2.343l2-1.345v27.9l-6.77-5.208a1.39,1.39,0,1,0-1.736,2.17l8.853,6.813a1.259,1.259,0,0,0,.26.217h.043a1.368,1.368,0,0,0,.608.217h.174a1.44,1.44,0,0,0,.651-.174,1.317,1.317,0,0,0,.174-.13L43.872,42.8a1.389,1.389,0,1,0-1.736-2.17l-6.77,5.208v-27.9l2,1.345a1.408,1.408,0,1,0,1.562-2.343l-3.949-2.6a.656.656,0,0,0-.087-.087l-.13-.087a.656.656,0,0,0-.087-.087A1.405,1.405,0,0,0,33.847,13.9Zm-10.979.043a1.389,1.389,0,1,0,1.389,1.389A1.391,1.391,0,0,0,22.868,13.945Zm22.219,0a1.389,1.389,0,1,0,1.389,1.389A1.391,1.391,0,0,0,45.087,13.945Zm-25,5.555a1.389,1.389,0,1,0,1.389,1.389A1.391,1.391,0,0,0,20.09,19.5Zm27.774,0a1.389,1.389,0,1,0,1.389,1.389A1.391,1.391,0,0,0,47.864,19.5ZM17.313,25.054A1.389,1.389,0,1,0,18.7,26.443,1.391,1.391,0,0,0,17.313,25.054Zm33.329,0a1.389,1.389,0,1,0,1.389,1.389A1.391,1.391,0,0,0,50.642,25.054ZM14.536,30.609A1.389,1.389,0,1,0,15.924,32,1.391,1.391,0,0,0,14.536,30.609Zm38.883,0A1.389,1.389,0,1,0,54.808,32,1.391,1.391,0,0,0,53.419,30.609ZM11.758,36.164a1.389,1.389,0,1,0,1.389,1.389A1.391,1.391,0,0,0,11.758,36.164Zm44.438,0a1.389,1.389,0,1,0,1.389,1.389A1.391,1.391,0,0,0,56.2,36.164ZM8.981,41.718a1.389,1.389,0,1,0,1.389,1.389A1.391,1.391,0,0,0,8.981,41.718Zm49.993,0a1.389,1.389,0,1,0,1.389,1.389A1.391,1.391,0,0,0,58.974,41.718ZM6.2,47.273a1.389,1.389,0,1,0,1.389,1.389A1.391,1.391,0,0,0,6.2,47.273Zm55.548,0a1.389,1.389,0,1,0,1.389,1.389A1.391,1.391,0,0,0,61.751,47.273Zm-57.2,4.166a2.78,2.78,0,0,0,.26,5.555H63.14a2.778,2.778,0,1,0,0-5.555H4.815A2.085,2.085,0,0,0,4.554,51.439Z" transform="translate(1003.096 9204.503)" fill="#63a5bf"/>
        </g>
      </g>
    </g>
    <g id="Group_203" data-name="Group 203" transform="translate(0 179)">
      <circle id="Ellipse_16" data-name="Ellipse 16" cx="15" cy="15" r="15" transform="translate(945 9094)"/>
      <text id="Heiz-Kühldecken" transform="translate(1001 9119)" font-size="24" font-family="Helvetica"><tspan x="0" y="0">Heiz-Kühldecken</tspan></text>
      <path id="icons8-heating" d="M47,0H3A3.006,3.006,0,0,0,0,3V47a3.006,3.006,0,0,0,3,3H47a3.006,3.006,0,0,0,3-3V3A3.006,3.006,0,0,0,47,0ZM11.762,39.648a1,1,0,0,1-1.523-1.3C10.273,38.309,14,33.867,14,29.6a5.4,5.4,0,0,0-1.754-4A7.274,7.274,0,0,1,10,20.3c0-4.91,4.066-9.746,4.238-9.949a1,1,0,1,1,1.523,1.3C15.727,11.691,12,16.133,12,20.3a5.39,5.39,0,0,0,1.754,3.992A7.277,7.277,0,0,1,16,29.6C16,34.609,11.934,39.445,11.762,39.648Zm12,0a1,1,0,0,1-1.523-1.3C22.273,38.309,26,33.867,26,29.6a5.4,5.4,0,0,0-1.754-4A7.274,7.274,0,0,1,22,20.3c0-4.91,4.066-9.746,4.238-9.949a1,1,0,1,1,1.523,1.3C27.727,11.691,24,16.133,24,20.3a5.39,5.39,0,0,0,1.754,3.992A7.277,7.277,0,0,1,28,29.6C28,34.609,23.934,39.445,23.762,39.648Zm12,0a1,1,0,1,1-1.523-1.3C34.273,38.309,38,33.867,38,29.6a5.4,5.4,0,0,0-1.754-4A7.274,7.274,0,0,1,34,20.3c0-4.91,4.066-9.746,4.238-9.949a1,1,0,1,1,1.523,1.3C39.727,11.691,36,16.133,36,20.3a5.39,5.39,0,0,0,1.754,3.992A7.277,7.277,0,0,1,40,29.6C40,34.609,35.934,39.445,35.762,39.648Z" transform="translate(855 9084)" fill="#63a5bf"/>
    </g>
    <g id="Group_208" data-name="Group 208" transform="translate(0 254.5)">
      <circle id="Ellipse_18" data-name="Ellipse 18" cx="15" cy="15" r="15" transform="translate(945 9316)"/>
      <g id="Group_207" data-name="Group 207">
        <text id="Doppel-_und_Hohlraumboden" data-name="Doppel- und Hohlraumboden" transform="translate(1001 9317)" font-size="24" font-family="Helvetica" opacity="0.89"><tspan x="0" y="18">Doppel- und Hohlraumboden</tspan></text>
        <text id="mit_flexiblen_Bodentanks" data-name="mit flexiblen Bodentanks" transform="translate(1001 9353.25)" font-size="18" font-family="Helvetica"><tspan x="0" y="14">mit flexiblen Bodentanks</tspan></text>
        <path id="icons8-reinforced_concrete" d="M21.216,7.906v9.459H17.162v2.7h4.054v9.459h2.7V20.068h6.757v9.459h2.7V20.068h6.757v9.459h2.7V20.068h4.054v-2.7H42.838V7.906h-2.7v9.459H33.378V7.906h-2.7v9.459H23.919V7.906ZM9.513,22.771,5,33.3v24.6H59.054V33.263l-4.571-9.14H45.541v2.7h7.274l2.7,5.405H8.4l2.9-6.757h7.216v-2.7Z" transform="translate(845.446 9313.094)" fill="#63a5bf"/>
      </g>
    </g>
    <g id="Group_211" data-name="Group 211" transform="translate(0 569.25)">
      <circle id="Ellipse_18-2" data-name="Ellipse 18" cx="15" cy="15" r="15" transform="translate(945 9316)"/>
      <g id="Group_207-2" data-name="Group 207">
        <text id="Elektrotankstellen" transform="translate(1001 9317)" font-size="24" font-family="Helvetica" opacity="0.89"><tspan x="0" y="18">Elektrotankstellen</tspan></text>
        <text id="Für_PKW-_und_E-Bike" data-name="Für PKW- und E-Bike" transform="translate(1001 9353.25)" font-size="18" font-family="Helvetica"><tspan x="0" y="14">Für PKW- und E-Bike</tspan></text>
        <path id="icons8-charging_station" d="M3.125,0V5.208H2.083A2.013,2.013,0,0,0,0,7.292v6.445a3.159,3.159,0,0,0,.944,2.214l3.223,3.223a1.987,1.987,0,0,0,1.465.618h1.66V46.875A3.142,3.142,0,0,0,10.417,50H45.833a3.142,3.142,0,0,0,3.125-3.125V8.333a3.142,3.142,0,0,0-3.125-3.125H18.75V7.292H45.833a1.038,1.038,0,0,1,1.042,1.042V46.875a1.038,1.038,0,0,1-1.042,1.042H10.417a1.038,1.038,0,0,1-1.042-1.042V19.792h1.66a1.987,1.987,0,0,0,1.465-.618l3.223-3.223a3.159,3.159,0,0,0,.944-2.214V7.292a2.013,2.013,0,0,0-2.083-2.083H13.542V0H11.458V5.208H5.208V0ZM18.75,9.375v4.362a5.18,5.18,0,0,1-1.53,3.678l-3.255,3.223a4.054,4.054,0,0,1-2.507,1.2V44.792A1.041,1.041,0,0,0,12.5,45.833H43.75a1.038,1.038,0,0,0,1.042-1.042V10.417A1.041,1.041,0,0,0,43.75,9.375Zm1.042,7.292H30.924c7.084,0,7.422,6.047,7.422,7.194s-.338,7.194-7.422,7.194H22.2V41.667H19.792ZM22.2,18.75V28.971h8.2c3.959,0,5.534-2.4,5.534-5.111,0-2.812-1.681-5.111-5.534-5.111Z" transform="translate(854.542 9320)" fill="#63a5bf"/>
      </g>
    </g>
    <g id="Group_213" data-name="Group 213" transform="translate(0 885.5)">
      <circle id="Ellipse_18-3" data-name="Ellipse 18" cx="15" cy="15" r="15" transform="translate(945 9316)"/>
      <g id="Group_207-3" data-name="Group 207">
        <text id="ca._3_0_m" data-name="ca. 3,0 m" transform="translate(1001 9317)" font-size="24" font-family="Helvetica" opacity="0.89"><tspan x="0" y="18">ca. 3,0 m</tspan></text>
        <text id="Lichte_Raumhöhe_im_Bürobereich" data-name="Lichte Raumhöhe im Bürobereich" transform="translate(1001 9353.25)" font-size="18" font-family="Helvetica"><tspan x="0" y="14">Lichte Raumhöhe im Bürobereich</tspan></text>
        <path id="icons8-height" d="M15.892,1a2.085,2.085,0,0,0,.2,4.166H34.835a2.083,2.083,0,1,0,0-4.166H16.087A1.564,1.564,0,0,0,15.892,1Zm9.5,5.175a1.217,1.217,0,0,0-.13.033,1.043,1.043,0,0,0-.651.423l-4.166,5.5A1.058,1.058,0,1,0,22.141,13.4l2.278-3.027V41.621l-2.278-3.027a1.058,1.058,0,1,0-1.693,1.269l4.166,5.5a1.04,1.04,0,0,0,1.693,0l4.166-5.5a1.058,1.058,0,1,0-1.693-1.269L26.5,41.621V10.374L28.781,13.4a1.058,1.058,0,0,0,1.693-1.269l-4.166-5.5A1.042,1.042,0,0,0,25.4,6.175Zm-10.35.033a1.042,1.042,0,1,0,1.042,1.042A1.044,1.044,0,0,0,15.046,6.208Zm20.831,0a1.042,1.042,0,1,0,1.042,1.042A1.044,1.044,0,0,0,35.877,6.208ZM15.046,10.374a1.042,1.042,0,1,0,1.042,1.042A1.044,1.044,0,0,0,15.046,10.374Zm20.831,0a1.042,1.042,0,1,0,1.042,1.042A1.044,1.044,0,0,0,35.877,10.374ZM15.046,14.54a1.042,1.042,0,1,0,1.042,1.042A1.044,1.044,0,0,0,15.046,14.54Zm20.831,0a1.042,1.042,0,1,0,1.042,1.042A1.044,1.044,0,0,0,35.877,14.54ZM15.046,18.707a1.042,1.042,0,1,0,1.042,1.042A1.044,1.044,0,0,0,15.046,18.707Zm20.831,0a1.042,1.042,0,1,0,1.042,1.042A1.044,1.044,0,0,0,35.877,18.707ZM15.046,22.873a1.042,1.042,0,1,0,1.042,1.042A1.044,1.044,0,0,0,15.046,22.873Zm20.831,0a1.042,1.042,0,1,0,1.042,1.042A1.044,1.044,0,0,0,35.877,22.873ZM15.046,27.039a1.042,1.042,0,1,0,1.042,1.042A1.044,1.044,0,0,0,15.046,27.039Zm20.831,0a1.042,1.042,0,1,0,1.042,1.042A1.044,1.044,0,0,0,35.877,27.039ZM15.046,31.205a1.042,1.042,0,1,0,1.042,1.042A1.044,1.044,0,0,0,15.046,31.205Zm20.831,0a1.042,1.042,0,1,0,1.042,1.042A1.044,1.044,0,0,0,35.877,31.205ZM15.046,35.371a1.042,1.042,0,1,0,1.042,1.042A1.044,1.044,0,0,0,15.046,35.371Zm20.831,0a1.042,1.042,0,1,0,1.042,1.042A1.044,1.044,0,0,0,35.877,35.371ZM15.046,39.538a1.042,1.042,0,1,0,1.042,1.042A1.044,1.044,0,0,0,15.046,39.538Zm20.831,0a1.042,1.042,0,1,0,1.042,1.042A1.044,1.044,0,0,0,35.877,39.538ZM15.046,43.7a1.042,1.042,0,1,0,1.042,1.042A1.044,1.044,0,0,0,15.046,43.7Zm20.831,0a1.042,1.042,0,1,0,1.042,1.042A1.044,1.044,0,0,0,35.877,43.7ZM15.892,46.829a2.085,2.085,0,0,0,.2,4.166H34.835a2.083,2.083,0,1,0,0-4.166H16.087A1.565,1.565,0,0,0,15.892,46.829Z" transform="translate(866.596 9320.003)" fill="#63a5bf"/>
      </g>
    </g>
    <g id="Group_206" data-name="Group 206" transform="translate(0 127)">
      <circle id="Ellipse_7" data-name="Ellipse 7" cx="15" cy="15" r="15" transform="translate(945 8993)"/>
      <g id="Group_205" data-name="Group 205" transform="translate(0 0.5)">
        <text id="DGNB_Gold" data-name="DGNB Gold" transform="translate(905 9004.5)" font-size="24" font-family="Helvetica"><tspan x="-126.703" y="0">DGNB Gold</tspan></text>
        <text id="Zertifizierung" transform="translate(905 9032)" font-size="18" font-family="Helvetica"><tspan x="-104.036" y="0">Zertifizierung</tspan></text>
        <g id="Group_161" data-name="Group 161" transform="translate(320.977 8345.256)">
          <path id="Rectangle_90" data-name="Rectangle 90" d="M8,0H49.7a0,0,0,0,1,0,0V41.7a8,8,0,0,1-8,8H0a0,0,0,0,1,0,0V8A8,8,0,0,1,8,0Z" transform="translate(679.523 635.58)" fill="#3c83a0"/>
          <path id="Path_268" data-name="Path 268" d="M729.559,635.244s0,16.592-25.018,24.644c-25.51,7.914-25.018,25.391-25.018,25.391h40.16a9.876,9.876,0,0,0,9.875-9.875Z" transform="translate(0 0)" fill="#63a5bf"/>
          <g id="Group_160" data-name="Group 160" transform="translate(684.02 666.698)">
            <path id="Path_269" data-name="Path 269" d="M693.184,731.179h3.452c3.06,0,5.587,1.867,5.587,5.492s-2.526,5.492-5.587,5.492h-3.452Zm3.326,9.368a3.884,3.884,0,0,0,0-7.767h-1.522v7.767Z" transform="translate(-693.184 -731.054)" fill="#fff"/>
            <path id="Path_270" data-name="Path 270" d="M724.219,736.415a5.25,5.25,0,0,1,5.429-5.617c2.558,0,4.409,1.365,4.833,3.578l-1.821.377a2.88,2.88,0,0,0-3.028-2.354c-2.072,0-3.546,1.443-3.546,4.017s1.475,4,3.53,4a2.878,2.878,0,0,0,3.107-2.778h-3.515v-1.522h5.225v5.79h-1.663v-1.475a3.573,3.573,0,0,1-3.216,1.6A5.2,5.2,0,0,1,724.219,736.415Z" transform="translate(-714.003 -730.798)" fill="#fff"/>
            <path id="Path_271" data-name="Path 271" d="M761.354,731.179h1.93l5.037,8.081v-8.081h1.757v10.984h-1.93L763.1,734.1v8.066h-1.742Z" transform="translate(-738.914 -731.054)" fill="#fff"/>
            <path id="Path_272" data-name="Path 272" d="M794.439,731.179h4.142c2.04,0,3.421,1.02,3.421,2.825a2.433,2.433,0,0,1-1.381,2.15,2.786,2.786,0,0,1,1.9,2.778c0,2.024-1.459,3.232-3.75,3.232h-4.331Zm4.032,4.378c1.177,0,1.773-.5,1.773-1.428,0-.942-.6-1.444-1.788-1.444h-2.213v2.872Zm.079,4.99c1.475,0,2.181-.581,2.181-1.695s-.706-1.71-2.181-1.71h-2.307v3.405Z" transform="translate(-761.108 -731.054)" fill="#fff"/>
          </g>
        </g>
      </g>
    </g>
    <text id="Ausstattung-2" data-name="Ausstattung" transform="translate(460 9000)" fill="#3c83a0" font-size="40" font-family="Helvetica"><tspan x="0" y="0">Ausstattung</tspan></text>
  </g>
</svg>
