<svg id="LCI_Logo" xmlns="http://www.w3.org/2000/svg" xmlns:xlink="http://www.w3.org/1999/xlink" width="170.224" height="35" viewBox="0 0 170.224 35">
  <defs>
    <clipPath id="clip-path">
      <path id="Path_141" data-name="Path 141" d="M0-115.6v2.328H3.271V-91.9H0v2.328H18.019v-6.6H15.573v4.217H6.349v-21.314H9.625V-115.6Z" transform="translate(0 115.604)" clip-rule="evenodd"/>
    </clipPath>
    <clipPath id="clip-path-2">
      <path id="Path_140" data-name="Path 140" d="M-430-207.666H-5.466V-473H-430Z" transform="translate(430 473)"/>
    </clipPath>
    <clipPath id="clip-path-3">
      <path id="Path_144" data-name="Path 144" d="M77.558-81.877A24.759,24.759,0,0,1,77.44-79,4.129,4.129,0,0,1,76-76.178a4.249,4.249,0,0,1-2.789.963,3.164,3.164,0,0,1-2.654-1.158,3.369,3.369,0,0,1-.672-2.124,3.6,3.6,0,0,1,2.194-3.38,23.081,23.081,0,0,1,5.483-1.642ZM80.48-84.7a27.684,27.684,0,0,0-.153-3.514,4.048,4.048,0,0,0-2.039-3.055,7.421,7.421,0,0,0-3.923-1,8.789,8.789,0,0,0-5.985,2.24l-.539,3.958h2.113a8.443,8.443,0,0,1,.713-2.509c.6-.953,1.766-1.43,3.481-1.43a3.347,3.347,0,0,1,2.927,1.121,4.946,4.946,0,0,1,.482,2.664v.7c-.834.165-1.444.291-1.828.365a24.448,24.448,0,0,0-4.792,1.375Q66.9-82.052,66.9-78.247a5.211,5.211,0,0,0,1.537,3.864,5.716,5.716,0,0,0,4.174,1.563,5.756,5.756,0,0,0,5.254-3.166v2.78h5.367v-2.141H80.48Z" transform="translate(-66.899 92.268)" clip-rule="evenodd"/>
    </clipPath>
    <clipPath id="clip-path-5">
      <path id="Path_147" data-name="Path 147" d="M145.526-83.768q0-2.878-.054-3.593a5.082,5.082,0,0,0-1.695-3.709,5.347,5.347,0,0,0-3.559-1.2,5.507,5.507,0,0,0-5.234,3.378v-2.993h-5.638v2.143h2.809v14.391h-2.809V-73.2H137.6v-2.143h-2.5v-7.843a18.209,18.209,0,0,1,.118-2.568,5.2,5.2,0,0,1,.728-2.01,3.992,3.992,0,0,1,3.54-1.971,2.69,2.69,0,0,1,2.752,1.642,12.243,12.243,0,0,1,.347,3.785v8.964H140.1V-73.2h8.235v-2.143h-2.812Z" transform="translate(-129.346 92.265)" clip-rule="evenodd"/>
    </clipPath>
    <clipPath id="clip-path-7">
      <path id="Path_150" data-name="Path 150" d="M210.034-82.247a3.51,3.51,0,0,1-2.654,1.079,3.714,3.714,0,0,1-2.829-1.156,3.866,3.866,0,0,1-.942-2.724,3.729,3.729,0,0,1,.981-2.724,3.707,3.707,0,0,1,2.789-1.158,3.664,3.664,0,0,1,2.654,1.005,3.812,3.812,0,0,1,1.04,2.84,3.931,3.931,0,0,1-1.04,2.837Zm-2.75,8.983a7.573,7.573,0,0,1,4.558,1.158,2.618,2.618,0,0,1,1,2.24,2.826,2.826,0,0,1-.962,2.222,6.576,6.576,0,0,1-4.482,1.291,7.6,7.6,0,0,1-4.715-1.215,2.684,2.684,0,0,1-1.058-2.222,2.71,2.71,0,0,1,1.252-2.336,7.677,7.677,0,0,1,4.405-1.138Zm1.309-17.693a16.4,16.4,0,0,0-3.271.289,5.414,5.414,0,0,0-2.75,1.487,5.659,5.659,0,0,0-1.793,4.289q0,4.134,4.351,5.484-4.1.967-4.1,3.013a1.707,1.707,0,0,0,1.038,1.585,7.319,7.319,0,0,0,1.461.538q-4.479,1.085-4.482,4.618a4.45,4.45,0,0,0,1.692,3.669q2.232,1.8,6.659,1.8,4.464,0,6.5-1.99a5.256,5.256,0,0,0,1.537-3.939,4.387,4.387,0,0,0-2.366-4.1q-1.845-1.041-6.693-1.43c-1.488-.114-2.233-.509-2.233-1.178a1.138,1.138,0,0,1,.7-.985,17.443,17.443,0,0,1,3.232-1.235,23.718,23.718,0,0,0,2.324-.832,6.224,6.224,0,0,0,2.022-1.311,4.988,4.988,0,0,0,1.424-3.672,5.005,5.005,0,0,0-1.906-4.094l4.177.04V-90.9h-4.273Z" transform="translate(-199.049 90.956)" clip-rule="evenodd"/>
    </clipPath>
    <clipPath id="clip-path-9">
      <path id="Path_153" data-name="Path 153" d="M297.35-92.076a4.639,4.639,0,0,1-3.424-1.279,4.533,4.533,0,0,1-1.289-3.378q0-3.185,3.387-5.716l5.886,8.265a5.94,5.94,0,0,1-4.56,2.109Zm-2.059-21.019a2.665,2.665,0,0,1,1.847-.637,2.645,2.645,0,0,1,1.963.719,2.471,2.471,0,0,1,.657,1.8q0,2.145-3.023,4.674c-.384-.528-.738-1.049-1.058-1.566a5.891,5.891,0,0,1-1.213-3.069,2.445,2.445,0,0,1,.827-1.916Zm9.871,18.372q1.616-2.108,1.54-6.566h2.484v-2.106h-6.757v2.143h2.138a10.5,10.5,0,0,1-.886,4.539l-5.35-7.591a19.468,19.468,0,0,0,2.366-2.356,6.955,6.955,0,0,0,1.813-4.462,4.6,4.6,0,0,0-1.6-3.669,5.611,5.611,0,0,0-3.79-1.254,5.678,5.678,0,0,0-3.886,1.351,4.863,4.863,0,0,0-1.673,3.805,8.023,8.023,0,0,0,1.52,4.267c.307.464.77,1.138,1.385,2.03a19.608,19.608,0,0,0-2.6,2.435,8.368,8.368,0,0,0-2.231,5.561,6.5,6.5,0,0,0,2.174,5.139,7.672,7.672,0,0,0,5.252,1.738,8.217,8.217,0,0,0,4.386-1.1,9.805,9.805,0,0,0,1.808-1.489l1.54,2.338h4.829v-2.163h-2.75Z" transform="translate(-289.636 116.045)" clip-rule="evenodd"/>
    </clipPath>
    <clipPath id="clip-path-11">
      <path id="Path_156" data-name="Path 156" d="M402.607-95.577a6,6,0,0,1-4.349,1.682,6.016,6.016,0,0,1-5.463-3.072,15.478,15.478,0,0,1-1.847-8.072,15.93,15.93,0,0,1,1.828-8.131,6.389,6.389,0,0,1,5.886-3.227,7.431,7.431,0,0,1,2.811.541,4.513,4.513,0,0,1,2.209,1.837,7.8,7.8,0,0,1,.925,3.109h2.462v-7.494h-2.384v2.087a8.735,8.735,0,0,0-6.427-2.551,9.27,9.27,0,0,0-7.195,3.032q-3.468,3.826-3.466,10.779,0,6.256,2.716,9.966a9.067,9.067,0,0,0,7.793,3.669q5.2,0,7.635-3.825a10.318,10.318,0,0,0,1.427-5.677h-2.521q-.288,3.671-2.039,5.349" transform="translate(-387.597 118.87)" clip-rule="evenodd"/>
    </clipPath>
    <clipPath id="clip-path-13">
      <path id="Path_159" data-name="Path 159" d="M468.728-90.959h-5.753v2.146h2.812v14.386h-2.812v2.143h8.582v-2.143h-2.829Z" transform="translate(-462.975 90.959)" clip-rule="evenodd"/>
    </clipPath>
    <clipPath id="clip-path-15">
      <path id="Path_170" data-name="Path 170" d="M0-83.873H170.224v-35H0Z" transform="translate(0 118.873)" clip-rule="evenodd"/>
    </clipPath>
    <clipPath id="clip-path-17">
      <rect id="Rectangle_86" data-name="Rectangle 86" width="31.84" height="26.533"/>
    </clipPath>
    <clipPath id="clip-path-18">
      <path id="Path_162" data-name="Path 162" d="M470.428-112.411H474.1v-3.3h-3.675Z" transform="translate(-470.428 115.715)" clip-rule="evenodd"/>
    </clipPath>
    <clipPath id="clip-path-19">
      <path id="Path_161" data-name="Path 161" d="M0-83.917H170.4V-119H0Z" transform="translate(0 119)"/>
    </clipPath>
    <clipPath id="clip-path-20">
      <path id="Path_165" data-name="Path 165" d="M503.423-84.427a8.048,8.048,0,0,1,.925-3.168,4.272,4.272,0,0,1,3.867-2.417q4,0,4.1,5.586Zm8.74-6.605a6.571,6.571,0,0,0-3.948-1.237,6.912,6.912,0,0,0-4.961,1.971q-2.948,2.822-2.947,7.993a10.352,10.352,0,0,0,2.5,7.344,6.9,6.9,0,0,0,5.254,2.143,7.03,7.03,0,0,0,5.52-2.282,6.317,6.317,0,0,0,1.6-3.822h-2.733a5.207,5.207,0,0,1-.827,2.143,4.071,4.071,0,0,1-3.5,1.7,4.028,4.028,0,0,1-3.441-1.642,8.226,8.226,0,0,1-1.37-4.983v-.617h12.161c.012-.348.02-.6.02-.753a13.756,13.756,0,0,0-.406-3.3,7.639,7.639,0,0,0-2.92-4.655Z" transform="translate(-500.307 92.27)" clip-rule="evenodd"/>
    </clipPath>
    <clipPath id="clip-path-22">
      <path id="Path_168" data-name="Path 168" d="M563.616-37.315h4.059v-4.057h-4.059Z" transform="translate(-563.616 41.372)" clip-rule="evenodd"/>
    </clipPath>
  </defs>
  <g id="Group_130" data-name="Group 130" transform="translate(0 0.964)" clip-path="url(#clip-path)">
    <g id="Group_129" data-name="Group 129" transform="translate(-126.771 -105.366)" clip-path="url(#clip-path-2)">
      <path id="Path_139" data-name="Path 139" d="M-5-120.6H15.967v28.976H-5Z" transform="translate(130.297 224.496)"/>
    </g>
  </g>
  <g id="Group_132" data-name="Group 132" transform="translate(19.723 7.843)" clip-path="url(#clip-path-3)">
    <g id="Group_131" data-name="Group 131" transform="translate(-146.494 -112.246)" clip-path="url(#clip-path-2)">
      <path id="Path_142" data-name="Path 142" d="M61.9-97.268H81.18v22.4H61.9Z" transform="translate(83.12 208.04)"/>
    </g>
  </g>
  <g id="Group_134" data-name="Group 134" transform="translate(38.133 7.844)" clip-path="url(#clip-path-5)">
    <g id="Group_133" data-name="Group 133" transform="translate(-164.904 -112.247)" clip-path="url(#clip-path-2)">
      <path id="Path_145" data-name="Path 145" d="M124.346-97.265h21.94v22.011h-21.94Z" transform="translate(39.084 208.037)"/>
    </g>
  </g>
  <g id="Group_136" data-name="Group 136" transform="translate(58.683 8.23)" clip-path="url(#clip-path-7)">
    <g id="Group_135" data-name="Group 135" transform="translate(-185.453 -112.632)" clip-path="url(#clip-path-2)">
      <path id="Path_148" data-name="Path 148" d="M194.049-95.956h20.014v29.718H194.049Z" transform="translate(-10.069 207.115)"/>
    </g>
  </g>
  <g id="Group_138" data-name="Group 138" transform="translate(85.389 0.833)" clip-path="url(#clip-path-9)">
    <g id="Group_137" data-name="Group 137" transform="translate(-212.16 -105.236)" clip-path="url(#clip-path-2)">
      <path id="Path_151" data-name="Path 151" d="M284.636-121.045h22.936v29.273H284.636Z" transform="translate(-73.95 224.807)"/>
    </g>
  </g>
  <g id="Group_140" data-name="Group 140" transform="translate(114.27 0.001)" clip-path="url(#clip-path-11)">
    <g id="Group_139" data-name="Group 139" transform="translate(-241.04 -104.403)" clip-path="url(#clip-path-2)">
      <path id="Path_154" data-name="Path 154" d="M382.6-123.87h22.518v30.395H382.6Z" transform="translate(-143.031 226.799)"/>
    </g>
  </g>
  <g id="Group_142" data-name="Group 142" transform="translate(136.492 8.229)" clip-path="url(#clip-path-13)">
    <g id="Group_141" data-name="Group 141" transform="translate(-263.263 -112.632)" clip-path="url(#clip-path-2)">
      <path id="Path_157" data-name="Path 157" d="M457.975-95.959h11.53v21.624h-11.53Z" transform="translate(-196.186 207.116)"/>
    </g>
  </g>
  <g id="Group_152" data-name="Group 152" clip-path="url(#clip-path-15)">
    <g id="Group_151" data-name="Group 151" transform="translate(-126.771 -104.402)" clip-path="url(#clip-path-2)">
      <g id="Group_150" data-name="Group 150" transform="translate(265.334 105.249)" style="isolation: isolate">
        <g id="Group_149" data-name="Group 149" clip-path="url(#clip-path-17)">
          <g id="Group_144" data-name="Group 144" transform="translate(0.126 0.084)" clip-path="url(#clip-path-18)">
            <g id="Group_143" data-name="Group 143" transform="translate(-138.69 -0.968)" clip-path="url(#clip-path-19)">
              <path id="Path_160" data-name="Path 160" d="M465.428-120.715h6.623v6.252h-6.623Z" transform="translate(-328.213 120.209)"/>
            </g>
          </g>
          <g id="Group_146" data-name="Group 146" transform="translate(8.935 6.996)" clip-path="url(#clip-path-20)">
            <g id="Group_145" data-name="Group 145" transform="translate(-147.498 -7.881)" clip-path="url(#clip-path-19)">
              <path id="Path_163" data-name="Path 163" d="M495.307-97.27h18.13v22.4h-18.13Z" transform="translate(-349.283 103.676)"/>
            </g>
          </g>
          <g id="Group_148" data-name="Group 148" transform="translate(27.599 22.002)" clip-path="url(#clip-path-22)">
            <g id="Group_147" data-name="Group 147" transform="translate(-166.163 -22.886)" clip-path="url(#clip-path-19)">
              <path id="Path_166" data-name="Path 166" d="M558.616-46.372h7.007v7.005h-7.007Z" transform="translate(-393.927 67.784)"/>
            </g>
          </g>
        </g>
      </g>
    </g>
  </g>
</svg>
