<svg xmlns="http://www.w3.org/2000/svg" width="99.301" height="42.194" viewBox="0 0 99.301 42.194">
  <g id="Ostern_Logo_121" transform="translate(0 -23.48)">
    <path id="Path_82" data-name="Path 82" d="M18.163,83.487A8.714,8.714,0,0,0,9.232,74.4a9.088,9.088,0,0,0,0,18.174A8.714,8.714,0,0,0,18.163,83.487ZM9.232,89.969c-3.445,0-5.933-2.732-5.933-6.482s2.488-6.513,5.933-6.513,5.933,2.732,5.933,6.513C15.165,87.236,12.677,89.969,9.232,89.969Z" transform="translate(-0.3 -50.92)"/>
    <path id="Path_83" data-name="Path 83" d="M66.618,101.025a3.277,3.277,0,0,1-3.222-2.51l-2.3.953a5.482,5.482,0,0,0,5.518,3.749c2.9,0,4.849-1.716,4.849-3.908,0-5.274-7.209-3.368-7.209-5.846,0-.826.766-1.334,1.978-1.334a2.754,2.754,0,0,1,2.711,1.97l2.3-.953C70.67,91.271,68.628,90,66.2,90c-2.775,0-4.53,1.493-4.53,3.495,0,4.861,7.177,3.05,7.177,5.814C68.851,100.263,67.958,101.025,66.618,101.025Z" transform="translate(-41.706 -61.564)"/>
    <path id="Path_84" data-name="Path 84" d="M99.333,78.7v3.813H97.1v2.351h2.233v6.418a3.89,3.89,0,0,0,4.243,4.258,6.11,6.11,0,0,0,2.042-.318l-.191-2.478a3.93,3.93,0,0,1-1.563.318,1.7,1.7,0,0,1-1.754-1.938V84.864h3.317V82.513h-3.317V78.7Z" transform="translate(-66.222 -53.854)"/>
    <path id="Path_85" data-name="Path 85" d="M134.418,101.025a3.277,3.277,0,0,1-3.222-2.51l-2.3.953a5.482,5.482,0,0,0,5.518,3.749c2.9,0,4.849-1.716,4.849-3.908,0-5.274-7.209-3.368-7.209-5.846,0-.826.766-1.334,1.978-1.334a2.754,2.754,0,0,1,2.711,1.97l2.3-.953C138.47,91.271,136.428,90,134,90c-2.775,0-4.53,1.493-4.53,3.495,0,4.861,7.177,3.05,7.177,5.814A2,2,0,0,1,134.418,101.025Z" transform="translate(-87.878 -61.564)"/>
    <path id="Path_86" data-name="Path 86" d="M167.033,78.7v3.813H164.8v2.351h2.233v6.418a3.89,3.89,0,0,0,4.243,4.258,6.11,6.11,0,0,0,2.042-.318l-.191-2.478a3.93,3.93,0,0,1-1.563.318,1.7,1.7,0,0,1-1.754-1.938V84.864h3.349V82.513H169.84V78.7Z" transform="translate(-112.327 -53.854)"/>
    <path id="Path_87" data-name="Path 87" d="M208.5,96.132A6.006,6.006,0,0,0,202.184,90c-4.083,0-6.284,3.145-6.284,6.609a6.289,6.289,0,0,0,6.412,6.609c3,0,5.2-1.43,5.9-3.876l-2.616-.667a2.979,2.979,0,0,1-3.222,2.192,3.676,3.676,0,0,1-3.732-3.59h9.825C208.468,97.054,208.5,96.513,208.5,96.132Zm-9.761-.953a3.39,3.39,0,0,1,3.413-2.987,3.149,3.149,0,0,1,3.381,2.987Z" transform="translate(-133.506 -61.564)"/>
    <path id="Path_88" data-name="Path 88" d="M246.275,92.736V90.289H243.5v12.8h2.775V98.328c0-3.972,1.659-5.656,3.541-5.656a3.962,3.962,0,0,1,1.659.318l.159-2.669A4.124,4.124,0,0,0,250.2,90.1,4.5,4.5,0,0,0,246.275,92.736Z" transform="translate(-165.922 -61.63)"/>
    <path id="Path_89" data-name="Path 89" d="M282.118,90a4.884,4.884,0,0,0-4.243,2.351V90.222H275.1v12.8h2.775V97.4c0-3.082,1.308-4.893,3.477-4.893a2.508,2.508,0,0,1,2.616,2.732v7.784h2.775V94.575A4.336,4.336,0,0,0,282.118,90Z" transform="translate(-187.442 -61.564)"/>
    <path id="Path_90" data-name="Path 90" d="M.3,153.9v2.669a8.629,8.629,0,0,0,4.147-1.938v14.361H7.254V151.2H4.925A9.089,9.089,0,0,1,.3,153.9Z" transform="translate(-0.3 -103.319)"/>
    <path id="Path_91" data-name="Path 91" d="M42.277,156.028c0-3.3-2.424-5.528-6.093-5.528a5.808,5.808,0,0,0-6.093,6.513l2.871.191c-.255-2.478,1.021-4.13,3.222-4.13A2.81,2.81,0,0,1,39.246,156c0,1.43-.861,2.8-2.871,4.512L29.9,166.037v2.478H42.277V165.91h-8.2l4.083-3.368C41,160.222,42.277,158.221,42.277,156.028Z" transform="translate(-20.458 -102.841)"/>
    <path id="Path_92" data-name="Path 92" d="M80.654,168.993V151.2H78.325a9.089,9.089,0,0,1-4.625,2.7v2.669a8.629,8.629,0,0,0,4.147-1.938v14.361Z" transform="translate(-50.286 -103.319)"/>
  </g>
</svg>
