<svg xmlns="http://www.w3.org/2000/svg" width="135.535" height="130" viewBox="0 0 135.535 130">
  <g id="Ostern_Logo_123" transform="translate(0 0)">
    <path id="Path_109" data-name="Path 109" d="M72.483,3.978h68.79V26.587h3.483V.5H69V26.587h3.483Z" transform="translate(-39.089 -0.5)" fill="#fff"/>
    <path id="Path_110" data-name="Path 110" d="M141.273,260.978H72.483V237.5H69v26.957h75.756V237.5h-3.483Z" transform="translate(-39.089 -134.457)" fill="#fff"/>
    <path id="Path_111" data-name="Path 111" d="M12.491,74.4C5.438,74.4.3,79.661.3,86.835.3,94.052,5.438,99.27,12.491,99.27s12.191-5.261,12.191-12.435C24.681,79.617,19.544,74.4,12.491,74.4Zm0,21.3c-4.7,0-8.1-3.739-8.1-8.87s3.4-8.913,8.1-8.913,8.1,3.739,8.1,8.913C20.589,91.965,17.193,95.7,12.491,95.7Z" transform="translate(-0.3 -42.27)" fill="#fff"/>
    <path id="Path_112" data-name="Path 112" d="M75.25,102.739c0-7.217-9.84-4.609-9.84-8,0-1.13,1.045-1.826,2.7-1.826a3.76,3.76,0,0,1,3.7,2.7l3.135-1.3c-.784-2.565-3.57-4.3-6.879-4.3-3.788,0-6.182,2.043-6.182,4.783,0,6.652,9.8,4.174,9.8,7.957,0,1.261-1.219,2.3-3.048,2.3a4.476,4.476,0,0,1-4.4-3.435l-3.135,1.3a7.484,7.484,0,0,0,7.532,5.13C72.594,108.087,75.25,105.783,75.25,102.739Z" transform="translate(-34.629 -51.087)" fill="#fff"/>
    <path id="Path_113" data-name="Path 113" d="M105.938,101.7a8.319,8.319,0,0,0,2.786-.435l-.261-3.391a5.352,5.352,0,0,1-2.133.435c-1.437,0-2.395-.913-2.395-2.652V87.135h4.528V83.917h-4.528V78.7h-3.788v5.217H97.1v3.217h3.048v8.783C100.148,99.917,102.629,101.7,105.938,101.7Z" transform="translate(-54.955 -44.7)" fill="#fff"/>
    <path id="Path_114" data-name="Path 114" d="M136.432,105.087a4.476,4.476,0,0,1-4.4-3.435l-3.135,1.3a7.484,7.484,0,0,0,7.532,5.13c3.962,0,6.618-2.348,6.618-5.348,0-7.217-9.84-4.609-9.84-8,0-1.13,1.045-1.826,2.7-1.826a3.76,3.76,0,0,1,3.7,2.7l3.135-1.3c-.784-2.565-3.57-4.3-6.879-4.3-3.788,0-6.182,2.043-6.182,4.783,0,6.652,9.8,4.174,9.8,7.957C139.436,104.043,138.217,105.087,136.432,105.087Z" transform="translate(-72.91 -51.087)" fill="#fff"/>
    <path id="Path_115" data-name="Path 115" d="M173.695,101.7a8.319,8.319,0,0,0,2.786-.435l-.261-3.391a5.352,5.352,0,0,1-2.133.435c-1.437,0-2.395-.913-2.395-2.652V87.135h4.572V83.917h-4.528V78.7h-3.788v5.217H164.9v3.217h3.048v8.783C167.9,99.917,170.386,101.7,173.695,101.7Z" transform="translate(-93.236 -44.7)" fill="#fff"/>
    <path id="Path_116" data-name="Path 116" d="M213.1,98.391A8.207,8.207,0,0,0,204.477,90c-5.573,0-8.577,4.3-8.577,9.043s3.178,9.043,8.751,9.043c4.093,0,7.1-1.957,8.055-5.3l-3.57-.913c-.435,1.913-2.09,3-4.4,3-2.786,0-4.746-1.87-5.094-4.913h13.41C213.054,99.652,213.1,98.913,213.1,98.391Zm-13.323-1.3c.566-2.609,2.264-4.087,4.659-4.087a4.3,4.3,0,0,1,4.615,4.087Z" transform="translate(-110.739 -51.087)" fill="#fff"/>
    <path id="Path_117" data-name="Path 117" d="M247.288,93.708V90.36H243.5v17.522h3.788V101.36c0-5.435,2.264-7.739,4.833-7.739a5.4,5.4,0,0,1,2.264.435L254.6,90.4a5.617,5.617,0,0,0-1.959-.3A6.135,6.135,0,0,0,247.288,93.708Z" transform="translate(-137.615 -51.142)" fill="#fff"/>
    <path id="Path_118" data-name="Path 118" d="M284.678,90a6.662,6.662,0,0,0-5.791,3.217V90.3H275.1v17.522h3.788v-7.7c0-4.217,1.785-6.7,4.746-6.7a3.428,3.428,0,0,1,3.57,3.739v10.652h3.788V96.261A5.926,5.926,0,0,0,284.678,90Z" transform="translate(-155.457 -51.087)" fill="#fff"/>
    <path id="Path_119" data-name="Path 119" d="M206.091,175.548V151.2h-3.178a12.4,12.4,0,0,1-6.313,3.7v3.652a11.764,11.764,0,0,0,5.66-2.652v19.652Z" transform="translate(-111.135 -85.678)" fill="#fff"/>
    <path id="Path_120" data-name="Path 120" d="M243.093,158.065c0-4.522-3.309-7.565-8.316-7.565-5.137,0-8.751,3.739-8.316,8.913l3.918.261c-.348-3.391,1.393-5.652,4.4-5.652a3.84,3.84,0,0,1,4.18,4c0,1.957-1.176,3.826-3.918,6.174l-8.838,7.565v3.391h16.893v-3.565H231.9l5.573-4.609C241.351,163.8,243.093,161.065,243.093,158.065Z" transform="translate(-127.847 -85.283)" fill="#fff"/>
    <path id="Path_121" data-name="Path 121" d="M280.244,160.635l6.531-6.043V151.2H270.84v3.565h11.1l-7.1,6.7,1.654,2.652a5.109,5.109,0,0,1,2.7-.783c2.961,0,4.789,1.652,4.789,4.435,0,2.7-2,4.478-4.963,4.478a4.876,4.876,0,0,1-5.181-4.13l-3.744.609c.435,4.3,4.006,7.13,8.969,7.13,5.486,0,9.1-3.217,9.1-7.957C288.212,163.2,284.947,160.374,280.244,160.635Z" transform="translate(-152.634 -85.678)" fill="#fff"/>
  </g>
</svg>
