<svg id="Oststern_121" xmlns="http://www.w3.org/2000/svg" width="134.933" height="130" viewBox="0 0 134.933 130">
  <rect id="Rectangle_32" data-name="Rectangle 32" width="134.802" height="130" transform="translate(0)" fill="none"/>
  <g id="Ostern_Logo_121">
    <path id="Path_80" data-name="Path 80" d="M69,26.587h3.468V3.978h68.485V26.587h3.468V.5H69Z" transform="translate(-39.222 -0.5)" fill="#fff"/>
    <path id="Path_81" data-name="Path 81" d="M140.952,260.978H72.468V237.5H69v26.956h75.42V237.5h-3.468Z" transform="translate(-39.222 -134.457)" fill="#fff"/>
    <path id="Path_82" data-name="Path 82" d="M24.573,86.835c0-7.217-5.115-12.435-12.137-12.435S.3,79.661.3,86.835C.3,94.052,5.415,99.27,12.437,99.27S24.573,94.052,24.573,86.835ZM12.437,95.7c-4.681,0-8.062-3.739-8.062-8.87s3.381-8.913,8.062-8.913S20.5,81.661,20.5,86.835C20.5,91.965,17.118,95.7,12.437,95.7Z" transform="translate(-0.3 -42.27)" fill="#fff"/>
    <path id="Path_83" data-name="Path 83" d="M68.6,105.087a4.46,4.46,0,0,1-4.378-3.435l-3.121,1.3a7.454,7.454,0,0,0,7.5,5.13c3.944,0,6.588-2.348,6.588-5.348,0-7.217-9.8-4.609-9.8-8,0-1.13,1.04-1.826,2.687-1.826a3.745,3.745,0,0,1,3.684,2.7l3.121-1.3c-.78-2.565-3.554-4.3-6.848-4.3-3.771,0-6.155,2.043-6.155,4.783,0,6.652,9.753,4.174,9.753,7.957C71.633,104.043,70.419,105.087,68.6,105.087Z" transform="translate(-34.746 -51.087)" fill="#fff"/>
    <path id="Path_84" data-name="Path 84" d="M100.134,78.7v5.217H97.1v3.217h3.034v8.783c0,4,2.471,5.826,5.765,5.826a8.249,8.249,0,0,0,2.774-.435l-.26-3.391a5.308,5.308,0,0,1-2.124.435c-1.43,0-2.384-.913-2.384-2.652V87.135h4.508V83.917h-4.508V78.7Z" transform="translate(-55.142 -44.7)" fill="#fff"/>
    <path id="Path_85" data-name="Path 85" d="M136.4,105.087a4.46,4.46,0,0,1-4.378-3.435l-3.121,1.3a7.454,7.454,0,0,0,7.5,5.13c3.944,0,6.588-2.348,6.588-5.348,0-7.217-9.8-4.609-9.8-8,0-1.13,1.04-1.826,2.687-1.826a3.745,3.745,0,0,1,3.684,2.7l3.121-1.3c-.78-2.565-3.554-4.3-6.848-4.3-3.771,0-6.155,2.043-6.155,4.783,0,6.652,9.753,4.174,9.753,7.957C139.389,104.043,138.176,105.087,136.4,105.087Z" transform="translate(-73.159 -51.087)" fill="#fff"/>
    <path id="Path_86" data-name="Path 86" d="M167.834,78.7v5.217H164.8v3.217h3.034v8.783c0,4,2.471,5.826,5.765,5.826a8.248,8.248,0,0,0,2.774-.435l-.26-3.391a5.308,5.308,0,0,1-2.124.435c-1.43,0-2.384-.913-2.384-2.652V87.135h4.551V83.917h-4.508V78.7Z" transform="translate(-93.498 -44.7)" fill="#fff"/>
    <path id="Path_87" data-name="Path 87" d="M213.021,98.391A8.189,8.189,0,0,0,204.439,90c-5.548,0-8.539,4.3-8.539,9.043s3.164,9.043,8.712,9.043c4.074,0,7.065-1.957,8.019-5.3l-3.554-.913c-.434,1.913-2.081,3-4.378,3-2.774,0-4.725-1.87-5.071-4.913h13.35C212.978,99.652,213.021,98.913,213.021,98.391Zm-13.263-1.3C200.321,94.478,202.012,93,204.4,93a4.291,4.291,0,0,1,4.595,4.087Z" transform="translate(-111.118 -51.087)" fill="#fff"/>
    <path id="Path_88" data-name="Path 88" d="M247.271,93.708V90.36H243.5v17.522h3.771V101.36c0-5.435,2.254-7.739,4.811-7.739a5.351,5.351,0,0,1,2.254.435l.217-3.652a5.568,5.568,0,0,0-1.95-.3A6.107,6.107,0,0,0,247.271,93.708Z" transform="translate(-138.085 -51.142)" fill="#fff"/>
    <path id="Path_89" data-name="Path 89" d="M284.636,90a6.626,6.626,0,0,0-5.765,3.217V90.3H275.1v17.522h3.771v-7.7c0-4.217,1.777-6.7,4.725-6.7a3.421,3.421,0,0,1,3.554,3.739v10.652h3.771V96.261A5.913,5.913,0,0,0,284.636,90Z" transform="translate(-155.988 -51.087)" fill="#fff"/>
    <path id="Path_90" data-name="Path 90" d="M.3,154.9v3.652A11.69,11.69,0,0,0,5.935,155.9v19.652H9.749V151.2H6.585A12.331,12.331,0,0,1,.3,154.9Z" transform="translate(-0.3 -85.678)" fill="#fff"/>
    <path id="Path_91" data-name="Path 91" d="M46.718,158.065c0-4.522-3.294-7.565-8.279-7.565-5.115,0-8.712,3.739-8.279,8.913l3.9.261c-.347-3.391,1.387-5.652,4.378-5.652a3.83,3.83,0,0,1,4.161,4c0,1.957-1.17,3.826-3.9,6.174l-8.8,7.565v3.391H46.718v-3.565H35.578l5.548-4.609C44.984,163.8,46.718,161.065,46.718,158.065Z" transform="translate(-17.07 -85.283)" fill="#fff"/>
    <path id="Path_92" data-name="Path 92" d="M83.149,175.548V151.2H79.985a12.331,12.331,0,0,1-6.285,3.7v3.652a11.69,11.69,0,0,0,5.635-2.652v19.652Z" transform="translate(-41.885 -85.678)" fill="#fff"/>
  </g>
</svg>
