<svg xmlns="http://www.w3.org/2000/svg" width="352.905" height="338" viewBox="0 0 352.905 338">
  <g id="Oststern_121" transform="translate(0)">
    <rect id="Rectangle_32" data-name="Rectangle 32" width="351.834" height="338" transform="translate(0)" fill="none"/>
    <g id="Ostern_Logo_121">
      <path id="Path_80" data-name="Path 80" d="M69,68.326h9.069V9.543H257.185V68.326h9.069V.5H69Z" transform="translate(8.881 -0.5)" fill="#fff"/>
      <path id="Path_81" data-name="Path 81" d="M257.185,298.543H78.069V237.5H69v70.087H266.254V237.5h-9.069Z" transform="translate(8.881 30.413)" fill="#fff"/>
      <path id="Path_82" data-name="Path 82" d="M63.784,106.73c0-18.765-13.377-32.33-31.742-32.33S.3,88.078.3,106.73c0,18.765,13.377,32.33,31.742,32.33S63.784,125.5,63.784,106.73ZM32.042,129.791c-12.243,0-21.086-9.722-21.086-23.061S19.8,83.557,32.042,83.557s21.086,9.722,21.086,23.174C53.128,120.07,44.285,129.791,32.042,129.791Z" transform="translate(-0.3 9.139)" fill="#fff"/>
      <path id="Path_83" data-name="Path 83" d="M80.712,129.226c-6.348,0-9.863-4.07-11.45-8.93L61.1,123.687c2.041,6.557,8.389,13.339,19.612,13.339,10.316,0,17.231-6.1,17.231-13.9,0-18.765-25.62-11.983-25.62-20.8,0-2.939,2.721-4.748,7.029-4.748a9.788,9.788,0,0,1,9.636,7.009l8.162-3.391C95.109,94.522,87.854,90,79.238,90c-9.863,0-16.1,5.313-16.1,12.435,0,17.3,25.507,10.852,25.507,20.687C88.648,126.513,85.473,129.226,80.712,129.226Z" transform="translate(7.825 11.174)" fill="#fff"/>
      <path id="Path_84" data-name="Path 84" d="M105.036,78.7V92.265H97.1v8.365h7.936v22.835c0,10.4,6.462,15.148,15.077,15.148a21.691,21.691,0,0,0,7.255-1.13l-.68-8.817a13.954,13.954,0,0,1-5.555,1.13c-3.741,0-6.235-2.374-6.235-6.9V100.63h11.79V92.265H114.9V78.7Z" transform="translate(12.637 9.7)" fill="#fff"/>
      <path id="Path_85" data-name="Path 85" d="M148.512,129.226c-6.348,0-9.863-4.07-11.45-8.93l-8.162,3.391c2.041,6.556,8.389,13.339,19.612,13.339,10.316,0,17.231-6.1,17.231-13.9,0-18.765-25.62-11.983-25.62-20.8,0-2.939,2.721-4.748,7.029-4.748a9.788,9.788,0,0,1,9.636,7.009l8.162-3.391C162.909,94.522,155.654,90,147.038,90c-9.863,0-16.1,5.313-16.1,12.435,0,17.3,25.507,10.852,25.507,20.687C156.334,126.513,153.16,129.226,148.512,129.226Z" transform="translate(16.886 11.174)" fill="#fff"/>
      <path id="Path_86" data-name="Path 86" d="M172.736,78.7V92.265H164.8v8.365h7.935v22.835c0,10.4,6.462,15.148,15.077,15.148a21.691,21.691,0,0,0,7.255-1.13l-.68-8.817a13.954,13.954,0,0,1-5.555,1.13c-3.741,0-6.235-2.374-6.235-6.9V100.63h11.9V92.265h-11.79V78.7Z" transform="translate(21.684 9.7)" fill="#fff"/>
      <path id="Path_87" data-name="Path 87" d="M240.679,111.817c0-11.078-7.822-21.817-22.446-21.817-14.511,0-22.333,11.191-22.333,23.513s8.276,23.513,22.786,23.513c10.656,0,18.478-5.087,20.972-13.791l-9.3-2.374c-1.134,4.974-5.442,7.8-11.45,7.8-7.255,0-12.357-4.861-13.264-12.774h34.916C240.566,115.1,240.679,113.174,240.679,111.817Zm-34.689-3.391c1.474-6.783,5.895-10.626,12.13-10.626,7.255,0,11.336,4.409,12.017,10.626Z" transform="translate(25.84 11.174)" fill="#fff"/>
      <path id="Path_88" data-name="Path 88" d="M253.363,99.483v-8.7H243.5v45.557h9.863V119.379c0-14.13,5.895-20.122,12.583-20.122a14.067,14.067,0,0,1,5.9,1.13l.567-9.5a14.642,14.642,0,0,0-5.1-.791C261.752,89.987,255.743,94.057,253.363,99.483Z" transform="translate(32.202 11.187)" fill="#fff"/>
      <path id="Path_89" data-name="Path 89" d="M300.04,90a17.352,17.352,0,0,0-15.077,8.365V90.791H275.1v45.557h9.863V116.339c0-10.965,4.648-17.409,12.357-17.409,5.782,0,9.3,3.957,9.3,9.722v27.7h9.863v-30.07C316.591,96.443,309.789,90,300.04,90Z" transform="translate(36.425 11.174)" fill="#fff"/>
      <path id="Path_90" data-name="Path 90" d="M.3,160.809v9.5a30.652,30.652,0,0,0,14.737-6.9v51.1h9.976V151.2H16.738A32.293,32.293,0,0,1,.3,160.809Z" transform="translate(-0.3 19.157)" fill="#fff"/>
      <path id="Path_91" data-name="Path 91" d="M73.885,170.17c0-11.757-8.616-19.67-21.653-19.67-13.377,0-22.786,9.722-21.653,23.174l10.2.678c-.907-8.817,3.628-14.7,11.45-14.7,6.575,0,10.883,4.07,10.883,10.4,0,5.087-3.061,9.948-10.2,16.052L29.9,205.778V214.6H73.885v-9.27H44.751l14.511-11.983C69.351,185.091,73.885,177.97,73.885,170.17Z" transform="translate(3.656 19.065)" fill="#fff"/>
      <path id="Path_92" data-name="Path 92" d="M98.413,214.5V151.2H90.138A32.292,32.292,0,0,1,73.7,160.809v9.5a30.652,30.652,0,0,0,14.737-6.9v51.1Z" transform="translate(9.509 19.157)" fill="#fff"/>
    </g>
  </g>
</svg>
