<svg xmlns="http://www.w3.org/2000/svg" width="50.036" height="50.035" viewBox="0 0 50.036 50.035">
  <g id="Group_161" data-name="Group 161" transform="translate(-679.523 -635.244)">
    <path id="Rectangle_90" data-name="Rectangle 90" d="M8,0H49.7a0,0,0,0,1,0,0V41.7a8,8,0,0,1-8,8H0a0,0,0,0,1,0,0V8A8,8,0,0,1,8,0Z" transform="translate(679.523 635.58)" fill="#3c83a0"/>
    <path id="Path_268" data-name="Path 268" d="M729.559,635.244s0,16.592-25.018,24.644c-25.51,7.914-25.018,25.391-25.018,25.391h40.16a9.876,9.876,0,0,0,9.875-9.875Z" transform="translate(0 0)" fill="#63a5bf"/>
    <g id="Group_160" data-name="Group 160" transform="translate(684.02 666.698)">
      <path id="Path_269" data-name="Path 269" d="M693.184,731.179h3.452c3.06,0,5.587,1.867,5.587,5.492s-2.526,5.492-5.587,5.492h-3.452Zm3.326,9.368a3.884,3.884,0,0,0,0-7.767h-1.522v7.767Z" transform="translate(-693.184 -731.054)" fill="#fff"/>
      <path id="Path_270" data-name="Path 270" d="M724.219,736.415a5.25,5.25,0,0,1,5.429-5.617c2.558,0,4.409,1.365,4.833,3.578l-1.821.377a2.88,2.88,0,0,0-3.028-2.354c-2.072,0-3.546,1.443-3.546,4.017s1.475,4,3.53,4a2.878,2.878,0,0,0,3.107-2.778h-3.515v-1.522h5.225v5.79h-1.663v-1.475a3.573,3.573,0,0,1-3.216,1.6A5.2,5.2,0,0,1,724.219,736.415Z" transform="translate(-714.003 -730.798)" fill="#fff"/>
      <path id="Path_271" data-name="Path 271" d="M761.354,731.179h1.93l5.037,8.081v-8.081h1.757v10.984h-1.93L763.1,734.1v8.066h-1.742Z" transform="translate(-738.914 -731.054)" fill="#fff"/>
      <path id="Path_272" data-name="Path 272" d="M794.439,731.179h4.142c2.04,0,3.421,1.02,3.421,2.825a2.433,2.433,0,0,1-1.381,2.15,2.786,2.786,0,0,1,1.9,2.778c0,2.024-1.459,3.232-3.75,3.232h-4.331Zm4.032,4.378c1.177,0,1.773-.5,1.773-1.428,0-.942-.6-1.444-1.788-1.444h-2.213v2.872Zm.079,4.99c1.475,0,2.181-.581,2.181-1.695s-.706-1.71-2.181-1.71h-2.307v3.405Z" transform="translate(-761.108 -731.054)" fill="#fff"/>
    </g>
  </g>
</svg>
