<svg xmlns="http://www.w3.org/2000/svg" width="50.137" height="50" viewBox="0 0 50.137 50">
  <path id="icons8-sun" d="M28.888,3.97a1.39,1.39,0,0,0-.149.037A1.191,1.191,0,0,0,27.81,5.2V12.33a1.189,1.189,0,1,0,2.378,0V5.2a1.19,1.19,0,0,0-1.3-1.226ZM11.943,10.955a1.181,1.181,0,0,0-.929.836A1.194,1.194,0,0,0,11.349,13L16.4,18.053a1.189,1.189,0,1,0,1.672-1.672l-5.054-5.054a1.194,1.194,0,0,0-.966-.372Zm33.74,0a1.2,1.2,0,0,0-.706.372l-5.054,5.054A1.189,1.189,0,1,0,41.6,18.053L46.649,13a1.189,1.189,0,0,0-.966-2.044ZM29,17.087A11.891,11.891,0,1,0,40.89,28.977,11.9,11.9,0,0,0,29,17.087ZM4.883,27.788a1.2,1.2,0,0,0,.334,2.378h7.134a1.189,1.189,0,1,0,0-2.378H4.883Zm40.429,0a1.2,1.2,0,0,0,.334,2.378h7.134a1.189,1.189,0,1,0,0-2.378H45.312ZM17.108,39.53a1.2,1.2,0,0,0-.706.372l-5.054,5.054a1.189,1.189,0,1,0,1.672,1.672l5.054-5.054a1.19,1.19,0,0,0-.855-2.044Zm23.41,0a1.181,1.181,0,0,0-.929.836,1.194,1.194,0,0,0,.334,1.208l5.054,5.054a1.189,1.189,0,1,0,1.672-1.672L41.6,39.9a1.189,1.189,0,0,0-.855-.372h-.223ZM28.888,44.4a1.389,1.389,0,0,0-.149.037,1.191,1.191,0,0,0-.929,1.189v7.134a1.189,1.189,0,1,0,2.378,0V45.624a1.19,1.19,0,0,0-1.3-1.226Z" transform="translate(-3.849 -3.964)" fill="#63a5bf"/>
</svg>
