<svg xmlns="http://www.w3.org/2000/svg" width="49.962" height="50" viewBox="0 0 49.962 50">
  <path id="icons8-airport" d="M46.946.188C43.171.188,36.731,4.7,35.406,6.115l-6.774,6.774L4.547,9.627a1.007,1.007,0,0,0-.847.314L.282,13.453a.991.991,0,0,0-.251.909.973.973,0,0,0,.6.721l18.565,7.276L9.628,32.112H5.018a1.02,1.02,0,0,0-.659.251L.345,35.75a1.014,1.014,0,0,0-.314,1,1,1,0,0,0,.721.753l9.565,2.352,2.352,9.565a1.03,1.03,0,0,0,.69.721.968.968,0,0,0,.941-.22l3.418-3.011a1.016,1.016,0,0,0,.345-.753V40.579l9.847-9.6,7.181,18.565a.973.973,0,0,0,.721.6,1.059,1.059,0,0,0,.22.031.976.976,0,0,0,.69-.282l3.512-3.418a1.007,1.007,0,0,0,.314-.847L37.287,21.544l6.774-6.774c1.388-1.388,8.193-10.58,5.112-13.8A3.105,3.105,0,0,0,46.946.188Z" transform="translate(-0.003 -0.188)"/>
</svg>
