<svg xmlns="http://www.w3.org/2000/svg" width="23.045" height="50" viewBox="0 0 23.045 50">
  <path id="icons8-height" d="M15.892,1a2.085,2.085,0,0,0,.2,4.166H34.835a2.083,2.083,0,1,0,0-4.166H16.087A1.564,1.564,0,0,0,15.892,1Zm9.5,5.175a1.217,1.217,0,0,0-.13.033,1.043,1.043,0,0,0-.651.423l-4.166,5.5A1.058,1.058,0,1,0,22.141,13.4l2.278-3.027V41.621l-2.278-3.027a1.058,1.058,0,1,0-1.693,1.269l4.166,5.5a1.04,1.04,0,0,0,1.693,0l4.166-5.5a1.058,1.058,0,1,0-1.693-1.269L26.5,41.621V10.374L28.781,13.4a1.058,1.058,0,0,0,1.693-1.269l-4.166-5.5A1.042,1.042,0,0,0,25.4,6.175Zm-10.35.033a1.042,1.042,0,1,0,1.042,1.042A1.044,1.044,0,0,0,15.046,6.208Zm20.831,0a1.042,1.042,0,1,0,1.042,1.042A1.044,1.044,0,0,0,35.877,6.208ZM15.046,10.374a1.042,1.042,0,1,0,1.042,1.042A1.044,1.044,0,0,0,15.046,10.374Zm20.831,0a1.042,1.042,0,1,0,1.042,1.042A1.044,1.044,0,0,0,35.877,10.374ZM15.046,14.54a1.042,1.042,0,1,0,1.042,1.042A1.044,1.044,0,0,0,15.046,14.54Zm20.831,0a1.042,1.042,0,1,0,1.042,1.042A1.044,1.044,0,0,0,35.877,14.54ZM15.046,18.707a1.042,1.042,0,1,0,1.042,1.042A1.044,1.044,0,0,0,15.046,18.707Zm20.831,0a1.042,1.042,0,1,0,1.042,1.042A1.044,1.044,0,0,0,35.877,18.707ZM15.046,22.873a1.042,1.042,0,1,0,1.042,1.042A1.044,1.044,0,0,0,15.046,22.873Zm20.831,0a1.042,1.042,0,1,0,1.042,1.042A1.044,1.044,0,0,0,35.877,22.873ZM15.046,27.039a1.042,1.042,0,1,0,1.042,1.042A1.044,1.044,0,0,0,15.046,27.039Zm20.831,0a1.042,1.042,0,1,0,1.042,1.042A1.044,1.044,0,0,0,35.877,27.039ZM15.046,31.205a1.042,1.042,0,1,0,1.042,1.042A1.044,1.044,0,0,0,15.046,31.205Zm20.831,0a1.042,1.042,0,1,0,1.042,1.042A1.044,1.044,0,0,0,35.877,31.205ZM15.046,35.371a1.042,1.042,0,1,0,1.042,1.042A1.044,1.044,0,0,0,15.046,35.371Zm20.831,0a1.042,1.042,0,1,0,1.042,1.042A1.044,1.044,0,0,0,35.877,35.371ZM15.046,39.538a1.042,1.042,0,1,0,1.042,1.042A1.044,1.044,0,0,0,15.046,39.538Zm20.831,0a1.042,1.042,0,1,0,1.042,1.042A1.044,1.044,0,0,0,35.877,39.538ZM15.046,43.7a1.042,1.042,0,1,0,1.042,1.042A1.044,1.044,0,0,0,15.046,43.7Zm20.831,0a1.042,1.042,0,1,0,1.042,1.042A1.044,1.044,0,0,0,35.877,43.7ZM15.892,46.829a2.085,2.085,0,0,0,.2,4.166H34.835a2.083,2.083,0,1,0,0-4.166H16.087A1.565,1.565,0,0,0,15.892,46.829Z" transform="translate(-13.904 -0.997)" fill="#63a5bf"/>
</svg>
