<svg xmlns="http://www.w3.org/2000/svg" width="50" height="50" viewBox="0 0 50 50">
  <path id="icons8-air_shaft" d="M4,4v7.143H27.809V4ZM30.19,4v7.143H54V4ZM4,13.524v8.333H27.809V13.524Zm26.19,0v8.333H54V13.524ZM4,24.238v7.143H27.809V24.238Zm26.19,0v7.143H54V24.238ZM13.524,34.459l-5.6,5.6A1.19,1.19,0,1,0,9.6,41.747l2.73-2.73v5.459A7.125,7.125,0,0,1,5.19,51.619,1.191,1.191,0,1,0,5.19,54a9.542,9.542,0,0,0,9.524-9.524V39.017l2.73,2.73a1.19,1.19,0,1,0,1.684-1.684Zm15.476,0-5.6,5.6a1.19,1.19,0,1,0,1.684,1.684l2.73-2.73V52.809a1.191,1.191,0,1,0,2.381,0V39.017l2.73,2.73A1.19,1.19,0,1,0,34.6,40.063Zm15.476,0-5.6,5.6a1.19,1.19,0,1,0,1.684,1.684l2.73-2.73v5.459A9.542,9.542,0,0,0,52.809,54a1.191,1.191,0,1,0,0-2.381,7.125,7.125,0,0,1-7.143-7.143V39.017l2.73,2.73a1.19,1.19,0,1,0,1.684-1.684Z" transform="translate(-4 -4)" fill="#63a5bf"/>
</svg>
