<svg xmlns="http://www.w3.org/2000/svg" width="34" height="50" viewBox="0 0 34 50">
  <path id="icons8-tram" d="M25,0C17.6,0,14,1.309,14,4a1,1,0,0,0,2,0c0-.492,1-1.3,4.094-1.719l.844,4.938C12.852,8.125,8,11.676,8,15V38.281a6.766,6.766,0,0,0,5.125,6.469l-4.187,3.5a.967.967,0,0,0-.125,1.375.991.991,0,0,0,.75.375,1.066,1.066,0,0,0,.656-.25L15.906,45H34.094l5.688,4.75a1.066,1.066,0,0,0,.656.25.991.991,0,0,0,.75-.375.967.967,0,0,0-.125-1.375l-4.187-3.5A6.766,6.766,0,0,0,42,38.281V15c0-3.324-4.852-6.875-12.937-7.781l.844-4.937C33,2.7,34,3.508,34,4a1,1,0,0,0,2,0C36,1.309,32.4,0,25,0Zm0,2c1.086,0,2.02.039,2.875.094l-.844,4.969C26.367,7.027,25.7,7,25,7s-1.367.027-2.031.063l-.844-4.969C22.98,2.039,23.914,2,25,2ZM19,13H31a1,1,0,0,1,1,1v2H18V14A1,1,0,0,1,19,13Zm-4,5H35a1.93,1.93,0,0,1,2,1.844v7.313A1.93,1.93,0,0,1,35,29H15a1.93,1.93,0,0,1-2-1.844V19.844A1.93,1.93,0,0,1,15,18Zm1,16a3,3,0,1,1-3,3A3,3,0,0,1,16,34Zm18,0a3,3,0,1,1-3,3A3,3,0,0,1,34,34Z" transform="translate(-8)"/>
</svg>
