<svg xmlns="http://www.w3.org/2000/svg" width="36.857" height="50" viewBox="0 0 36.857 50">
  <path id="icons8-train" d="M19.5,0a3.484,3.484,0,0,0-3.437,3H15A6.871,6.871,0,0,0,8,9.717V38.273a6.673,6.673,0,0,0,3.749,5.936l-4.811,4a1.01,1.01,0,1,0,1.281,1.562L14,44.928a7.05,7.05,0,0,0,1,.062h20a7.05,7.05,0,0,0,1-.062l5.78,4.843a1.01,1.01,0,1,0,1.281-1.562l-4.811-4a6.673,6.673,0,0,0,3.749-5.936V9.717a6.871,6.871,0,0,0-7-6.717H33.932a3.469,3.469,0,0,0-6.874,0H22.934A3.484,3.484,0,0,0,19.5,0Zm0,2A1.5,1.5,0,1,1,18,3.5,1.5,1.5,0,0,1,19.5,2Zm11,0A1.5,1.5,0,1,1,29,3.5,1.5,1.5,0,0,1,30.495,2ZM19,10h12a1,1,0,0,1,1,1v2H18V11A1,1,0,0,1,19,10Zm-4,5h20a1.93,1.93,0,0,1,2,1.843v7.311a1.93,1.93,0,0,1-2,1.843H15a1.93,1.93,0,0,1-2-1.843V16.84A1.93,1.93,0,0,1,15,15Zm1,18a3,3,0,1,1-3,3A3,3,0,0,1,16,32.993Zm18,0a3,3,0,1,1-3,3A3,3,0,0,1,33.994,32.993Z" transform="translate(-6.568)"/>
</svg>
