<svg xmlns="http://www.w3.org/2000/svg" width="48.958" height="50" viewBox="0 0 48.958 50">
  <path id="icons8-charging_station" d="M3.125,0V5.208H2.083A2.013,2.013,0,0,0,0,7.292v6.445a3.159,3.159,0,0,0,.944,2.214l3.223,3.223a1.987,1.987,0,0,0,1.465.618h1.66V46.875A3.142,3.142,0,0,0,10.417,50H45.833a3.142,3.142,0,0,0,3.125-3.125V8.333a3.142,3.142,0,0,0-3.125-3.125H18.75V7.292H45.833a1.038,1.038,0,0,1,1.042,1.042V46.875a1.038,1.038,0,0,1-1.042,1.042H10.417a1.038,1.038,0,0,1-1.042-1.042V19.792h1.66a1.987,1.987,0,0,0,1.465-.618l3.223-3.223a3.159,3.159,0,0,0,.944-2.214V7.292a2.013,2.013,0,0,0-2.083-2.083H13.542V0H11.458V5.208H5.208V0ZM18.75,9.375v4.362a5.18,5.18,0,0,1-1.53,3.678l-3.255,3.223a4.054,4.054,0,0,1-2.507,1.2V44.792A1.041,1.041,0,0,0,12.5,45.833H43.75a1.038,1.038,0,0,0,1.042-1.042V10.417A1.041,1.041,0,0,0,43.75,9.375Zm1.042,7.292H30.924c7.084,0,7.422,6.047,7.422,7.194s-.338,7.194-7.422,7.194H22.2V41.667H19.792ZM22.2,18.75V28.971h8.2c3.959,0,5.534-2.4,5.534-5.111,0-2.812-1.681-5.111-5.534-5.111Z" fill="#63a5bf"/>
</svg>
