<svg xmlns="http://www.w3.org/2000/svg" width="32.857" height="30" viewBox="0 0 32.857 30">
  <path id="icons8-pictures_folder" d="M4.143,4A2.145,2.145,0,0,0,2,6.143v4.286H34.857V9a2.145,2.145,0,0,0-2.143-2.143l-19.254,0a4,4,0,0,1-.833-1.081C12.08,4.906,11.512,4,10.571,4ZM2.714,11.857A.715.715,0,0,0,2,12.571V31.857A2.145,2.145,0,0,0,4.143,34H32.714a2.145,2.145,0,0,0,2.143-2.143V12.571a.715.715,0,0,0-.714-.714Zm25,3.571a2.143,2.143,0,1,1-2.143,2.143A2.143,2.143,0,0,1,27.714,15.429ZM14.857,18.3a.711.711,0,0,1,.526.222l5.646,6.157,2.609-2.607a.712.712,0,0,1,1.009,0l5.714,5.714a.714.714,0,1,1-1.009,1.01l-5.209-5.209-5.209,5.209a.714.714,0,0,1-1.01-1.01l2.1-2.1-5.162-5.628-7.331,8a.714.714,0,0,1-1.053-.965l7.857-8.571A.714.714,0,0,1,14.857,18.3Z" transform="translate(-2 -4)"/>
</svg>
