<svg xmlns="http://www.w3.org/2000/svg" width="64.054" height="50" viewBox="0 0 64.054 50">
  <path id="icons8-depth" d="M25.385,7a2.78,2.78,0,1,0,.26,5.555H42.309a2.778,2.778,0,1,0,0-5.555H25.645A2.085,2.085,0,0,0,25.385,7Zm8.462,6.9a1.624,1.624,0,0,0-.174.043,1.39,1.39,0,0,0-.694.391l-3.949,2.6a1.408,1.408,0,0,0,1.562,2.343l2-1.345v27.9l-6.77-5.208a1.39,1.39,0,1,0-1.736,2.17l8.853,6.813a1.259,1.259,0,0,0,.26.217h.043a1.368,1.368,0,0,0,.608.217h.174a1.44,1.44,0,0,0,.651-.174,1.317,1.317,0,0,0,.174-.13L43.872,42.8a1.389,1.389,0,1,0-1.736-2.17l-6.77,5.208v-27.9l2,1.345a1.408,1.408,0,1,0,1.562-2.343l-3.949-2.6a.656.656,0,0,0-.087-.087l-.13-.087a.656.656,0,0,0-.087-.087A1.405,1.405,0,0,0,33.847,13.9Zm-10.979.043a1.389,1.389,0,1,0,1.389,1.389A1.391,1.391,0,0,0,22.868,13.945Zm22.219,0a1.389,1.389,0,1,0,1.389,1.389A1.391,1.391,0,0,0,45.087,13.945Zm-25,5.555a1.389,1.389,0,1,0,1.389,1.389A1.391,1.391,0,0,0,20.09,19.5Zm27.774,0a1.389,1.389,0,1,0,1.389,1.389A1.391,1.391,0,0,0,47.864,19.5ZM17.313,25.054A1.389,1.389,0,1,0,18.7,26.443,1.391,1.391,0,0,0,17.313,25.054Zm33.329,0a1.389,1.389,0,1,0,1.389,1.389A1.391,1.391,0,0,0,50.642,25.054ZM14.536,30.609A1.389,1.389,0,1,0,15.924,32,1.391,1.391,0,0,0,14.536,30.609Zm38.883,0A1.389,1.389,0,1,0,54.808,32,1.391,1.391,0,0,0,53.419,30.609ZM11.758,36.164a1.389,1.389,0,1,0,1.389,1.389A1.391,1.391,0,0,0,11.758,36.164Zm44.438,0a1.389,1.389,0,1,0,1.389,1.389A1.391,1.391,0,0,0,56.2,36.164ZM8.981,41.718a1.389,1.389,0,1,0,1.389,1.389A1.391,1.391,0,0,0,8.981,41.718Zm49.993,0a1.389,1.389,0,1,0,1.389,1.389A1.391,1.391,0,0,0,58.974,41.718ZM6.2,47.273a1.389,1.389,0,1,0,1.389,1.389A1.391,1.391,0,0,0,6.2,47.273Zm55.548,0a1.389,1.389,0,1,0,1.389,1.389A1.391,1.391,0,0,0,61.751,47.273Zm-57.2,4.166a2.78,2.78,0,0,0,.26,5.555H63.14a2.778,2.778,0,1,0,0-5.555H4.815A2.085,2.085,0,0,0,4.554,51.439Z" transform="translate(-1.904 -6.997)" fill="#63a5bf"/>
</svg>
