<svg xmlns="http://www.w3.org/2000/svg" width="50" height="50" viewBox="0 0 50 50">
  <path id="icons8-heating" d="M47,0H3A3.006,3.006,0,0,0,0,3V47a3.006,3.006,0,0,0,3,3H47a3.006,3.006,0,0,0,3-3V3A3.006,3.006,0,0,0,47,0ZM11.762,39.648a1,1,0,0,1-1.523-1.3C10.273,38.309,14,33.867,14,29.6a5.4,5.4,0,0,0-1.754-4A7.274,7.274,0,0,1,10,20.3c0-4.91,4.066-9.746,4.238-9.949a1,1,0,1,1,1.523,1.3C15.727,11.691,12,16.133,12,20.3a5.39,5.39,0,0,0,1.754,3.992A7.277,7.277,0,0,1,16,29.6C16,34.609,11.934,39.445,11.762,39.648Zm12,0a1,1,0,0,1-1.523-1.3C22.273,38.309,26,33.867,26,29.6a5.4,5.4,0,0,0-1.754-4A7.274,7.274,0,0,1,22,20.3c0-4.91,4.066-9.746,4.238-9.949a1,1,0,1,1,1.523,1.3C27.727,11.691,24,16.133,24,20.3a5.39,5.39,0,0,0,1.754,3.992A7.277,7.277,0,0,1,28,29.6C28,34.609,23.934,39.445,23.762,39.648Zm12,0a1,1,0,1,1-1.523-1.3C34.273,38.309,38,33.867,38,29.6a5.4,5.4,0,0,0-1.754-4A7.274,7.274,0,0,1,34,20.3c0-4.91,4.066-9.746,4.238-9.949a1,1,0,1,1,1.523,1.3C39.727,11.691,36,16.133,36,20.3a5.39,5.39,0,0,0,1.754,3.992A7.277,7.277,0,0,1,40,29.6C40,34.609,35.934,39.445,35.762,39.648Z" fill="#63a5bf"/>
</svg>
